<svg width="16" height="16" viewBox="0 0 16 16" fill="none" xmlns="http://www.w3.org/2000/svg">
<path d="M4 14.6666V2.66665C4 2.31302 4.14048 1.97389 4.39052 1.72384C4.64057 1.47379 4.97971 1.33331 5.33333 1.33331H10.6667C11.0203 1.33331 11.3594 1.47379 11.6095 1.72384C11.8595 1.97389 12 2.31302 12 2.66665V14.6666H4Z" stroke="#4A5565" stroke-width="1.33333" stroke-linecap="round" stroke-linejoin="round"/>
<path d="M3.9987 8H2.66536C2.31174 8 1.9726 8.14048 1.72256 8.39052C1.47251 8.64057 1.33203 8.97971 1.33203 9.33333V13.3333C1.33203 13.687 1.47251 14.0261 1.72256 14.2761C1.9726 14.5262 2.31174 14.6667 2.66536 14.6667H3.9987" stroke="#4A5565" stroke-width="1.33333" stroke-linecap="round" stroke-linejoin="round"/>
<path d="M12 6H13.3333C13.687 6 14.0261 6.14048 14.2761 6.39052C14.5262 6.64057 14.6667 6.97971 14.6667 7.33333V13.3333C14.6667 13.687 14.5262 14.0261 14.2761 14.2761C14.0261 14.5262 13.687 14.6667 13.3333 14.6667H12" stroke="#4A5565" stroke-width="1.33333" stroke-linecap="round" stroke-linejoin="round"/>
<path d="M6.66797 4H9.33464" stroke="#4A5565" stroke-width="1.33333" stroke-linecap="round" stroke-linejoin="round"/>
<path d="M6.66797 6.66669H9.33464" stroke="#4A5565" stroke-width="1.33333" stroke-linecap="round" stroke-linejoin="round"/>
<path d="M6.66797 9.33331H9.33464" stroke="#4A5565" stroke-width="1.33333" stroke-linecap="round" stroke-linejoin="round"/>
<path d="M6.66797 12H9.33464" stroke="#4A5565" stroke-width="1.33333" stroke-linecap="round" stroke-linejoin="round"/>
</svg>
