<svg width="20" height="18" viewBox="0 0 20 18" fill="none" xmlns="http://www.w3.org/2000/svg">
<path d="M12.3535 0C13.34 0.00697727 14.1176 0.519429 14.5684 1.40723C14.6331 1.53384 14.71 1.68959 14.8027 1.88086L15.4463 3.2334C15.4815 3.30783 15.5555 3.35511 15.6572 3.35547L15.8691 3.36133C18.1799 3.48215 20 5.39233 20 7.71289V13.6426C20 16.0486 18.0466 18 15.6377 18H4.36328C1.95357 18 0 16.0488 0 13.6426V7.71289C0 5.30603 1.95324 3.3559 4.31543 3.35742L4.38965 3.35352C4.46097 3.34436 4.524 3.29916 4.55469 3.23438L5.0459 2.19727L5.43164 1.4082C5.88461 0.518936 6.66049 0.00697356 7.64648 0H12.3535ZM7.66211 1.48828C7.25493 1.49114 6.97957 1.67255 6.77344 2.07715C6.71324 2.19547 6.63971 2.34543 6.5498 2.53125L5.91602 3.86426C5.66591 4.39222 5.16322 4.7553 4.53809 4.83398L4.36816 4.84375C2.7865 4.84375 1.50488 6.12388 1.50488 7.70312V13.6328C1.50506 15.2113 2.78699 16.4912 4.36816 16.4912H15.6426C17.2229 16.4912 18.5047 15.2112 18.5049 13.6328V7.70312C18.5049 6.18074 17.3107 4.92716 15.8154 4.84863L15.4912 4.83691C14.8897 4.78365 14.3564 4.41646 14.0947 3.86426L13.3965 2.39844L13.2363 2.07715C13.0312 1.67316 12.7549 1.49111 12.3525 1.48828H7.66211ZM10.1982 6.39941C12.2717 6.50733 13.9245 8.23135 13.9209 10.3311C13.917 12.4908 12.1549 14.2513 9.99414 14.2539C7.82937 14.2551 6.06222 12.4867 6.06348 10.3281C6.04623 8.17716 7.82504 6.39226 9.99609 6.39453L10.1982 6.39941ZM9.83789 7.8877C8.57269 7.97016 7.55623 9.04166 7.56641 10.3125C7.56564 11.6498 8.66073 12.7466 9.99512 12.7461C11.3284 12.7446 12.4213 11.6526 12.4238 10.3184C12.4261 8.97855 11.3357 7.88461 9.99805 7.88281L9.83789 7.8877ZM14.6191 6.05469C14.988 5.90867 15.4269 5.99571 15.7012 6.26953C15.7833 6.35036 15.8522 6.44801 15.8906 6.53027L15.9141 6.58887C15.9691 6.71274 15.997 6.84753 15.9971 6.9834C15.9971 7.24484 15.8947 7.48721 15.7051 7.68848C15.5411 7.85334 15.3254 7.95477 15.0957 7.97754L14.9971 7.98242L14.8994 7.97754C14.8029 7.96764 14.7074 7.94232 14.6006 7.89941C14.4818 7.8467 14.3787 7.77953 14.2793 7.67871C14.1005 7.48875 13.9971 7.23967 13.9971 6.9834C13.9971 6.84748 14.0248 6.71287 14.0791 6.59082C14.1335 6.46714 14.1979 6.36248 14.3145 6.24902C14.4033 6.17175 14.4948 6.10942 14.6191 6.05469Z" fill="#494F5A"/>
</svg>
