<svg width="16" height="16" viewBox="0 0 16 16" fill="none" xmlns="http://www.w3.org/2000/svg">
<path d="M10.6654 13.3333V2.66665C10.6654 2.31302 10.5249 1.97389 10.2748 1.72384C10.0248 1.47379 9.68565 1.33331 9.33203 1.33331H6.66536C6.31174 1.33331 5.9726 1.47379 5.72256 1.72384C5.47251 1.97389 5.33203 2.31302 5.33203 2.66665V13.3333" stroke="#4A5565" stroke-width="1.33333" stroke-linecap="round" stroke-linejoin="round"/>
<path d="M13.332 4H2.66536C1.92898 4 1.33203 4.59695 1.33203 5.33333V12C1.33203 12.7364 1.92898 13.3333 2.66536 13.3333H13.332C14.0684 13.3333 14.6654 12.7364 14.6654 12V5.33333C14.6654 4.59695 14.0684 4 13.332 4Z" stroke="#4A5565" stroke-width="1.33333" stroke-linecap="round" stroke-linejoin="round"/>
</svg>
