<svg width="16" height="16" viewBox="0 0 16 16" fill="none" xmlns="http://www.w3.org/2000/svg">
<path d="M14.6663 5.68004V2.65337C14.6663 1.71337 14.2397 1.33337 13.1797 1.33337H10.4863C9.42634 1.33337 8.99967 1.71337 8.99967 2.65337V5.67337C8.99967 6.62004 9.42634 6.99337 10.4863 6.99337H13.1797C14.2397 7.00004 14.6663 6.62004 14.6663 5.68004Z" stroke="#636A79" stroke-width="1.2" stroke-linecap="round" stroke-linejoin="round"/>
<path d="M14.6663 13.18V10.4867C14.6663 9.42671 14.2397 9.00004 13.1797 9.00004H10.4863C9.42634 9.00004 8.99967 9.42671 8.99967 10.4867V13.18C8.99967 14.24 9.42634 14.6667 10.4863 14.6667H13.1797C14.2397 14.6667 14.6663 14.24 14.6663 13.18Z" stroke="#636A79" stroke-width="1.2" stroke-linecap="round" stroke-linejoin="round"/>
<path d="M6.99967 5.68004V2.65337C6.99967 1.71337 6.57301 1.33337 5.51301 1.33337H2.81967C1.75967 1.33337 1.33301 1.71337 1.33301 2.65337V5.67337C1.33301 6.62004 1.75967 6.99337 2.81967 6.99337H5.51301C6.57301 7.00004 6.99967 6.62004 6.99967 5.68004Z" stroke="#636A79" stroke-width="1.2" stroke-linecap="round" stroke-linejoin="round"/>
<path d="M6.99967 13.18V10.4867C6.99967 9.42671 6.57301 9.00004 5.51301 9.00004H2.81967C1.75967 9.00004 1.33301 9.42671 1.33301 10.4867V13.18C1.33301 14.24 1.75967 14.6667 2.81967 14.6667H5.51301C6.57301 14.6667 6.99967 14.24 6.99967 13.18Z" stroke="#636A79" stroke-width="1.2" stroke-linecap="round" stroke-linejoin="round"/>
</svg>
