<svg width="16" height="16" viewBox="0 0 16 16" fill="none" xmlns="http://www.w3.org/2000/svg">
<path d="M7.98014 14.6667C11.662 14.6667 14.6468 11.6819 14.6468 8.00004C14.6468 4.31814 11.662 1.33337 7.98014 1.33337C4.29824 1.33337 1.31348 4.31814 1.31348 8.00004C1.31348 11.6819 4.29824 14.6667 7.98014 14.6667Z" stroke="#494F5A" stroke-linecap="round" stroke-linejoin="round"/>
<path d="M7.14634 9.68462V6.31129C7.14634 5.99129 7.01301 5.86462 6.67301 5.86462H5.80634C5.46634 5.86462 5.33301 5.99129 5.33301 6.31129V9.68462C5.33301 10.0046 5.46634 10.1313 5.80634 10.1313H6.66634C7.01301 10.1313 7.14634 10.0046 7.14634 9.68462Z" stroke="#494F5A" stroke-linecap="round" stroke-linejoin="round"/>
<path d="M10.666 9.68462V6.31129C10.666 5.99129 10.5327 5.86462 10.1927 5.86462H9.33271C8.99271 5.86462 8.85938 5.99129 8.85938 6.31129V9.68462C8.85938 10.0046 8.99271 10.1313 9.33271 10.1313H10.1927C10.5327 10.1313 10.666 10.0046 10.666 9.68462Z" stroke="#494F5A" stroke-linecap="round" stroke-linejoin="round"/>
</svg>
