<svg width="16" height="16" viewBox="0 0 16 16" fill="none" xmlns="http://www.w3.org/2000/svg">
<path d="M13.2663 9H2.73301C1.73301 9 1.33301 9.42667 1.33301 10.4867V13.18C1.33301 14.24 1.73301 14.6667 2.73301 14.6667H13.2663C14.2663 14.6667 14.6663 14.24 14.6663 13.18V10.4867C14.6663 9.42667 14.2663 9 13.2663 9Z" stroke="#636A79" stroke-width="1.2" stroke-linecap="round" stroke-linejoin="round"/>
<path d="M13.2663 1.33337H2.73301C1.73301 1.33337 1.33301 1.76004 1.33301 2.82004V5.51337C1.33301 6.57337 1.73301 7.00004 2.73301 7.00004H13.2663C14.2663 7.00004 14.6663 6.57337 14.6663 5.51337V2.82004C14.6663 1.76004 14.2663 1.33337 13.2663 1.33337Z" stroke="#636A79" stroke-width="1.2" stroke-linecap="round" stroke-linejoin="round"/>
</svg>
