<svg width="18" height="18" viewBox="0 0 18 18" fill="none" xmlns="http://www.w3.org/2000/svg">
<path d="M4.08744 10.3922L4.60147 10.7017L4.60281 10.6994L4.08744 10.3922ZM3.22494 11.8247L2.71092 11.5152L2.71083 11.5154L3.22494 11.8247ZM4.03494 14.0222L3.84258 14.5905L3.84481 14.5913L4.03494 14.0222ZM13.9874 14.0222L13.7991 13.4525L13.7973 13.4531L13.9874 14.0222ZM14.7974 11.8247L15.3119 11.516L15.3115 11.5152L14.7974 11.8247ZM13.9349 10.3922L13.4151 10.6921L13.4209 10.7017L13.9349 10.3922ZM10.402 2.39812L10.2347 2.97433C10.4542 3.03807 10.6909 2.97151 10.8451 2.80267C10.9992 2.63383 11.044 2.39206 10.9606 2.1792L10.402 2.39812ZM9.68195 2.24812L9.60753 2.8435L9.60975 2.84377L9.68195 2.24812ZM7.62695 2.39812L7.06832 2.1792C6.98489 2.39209 7.02971 2.6339 7.18391 2.80274C7.33811 2.97158 7.57487 3.0381 7.79444 2.97427L7.62695 2.39812ZM9.01494 2.17969V1.57969C6.20107 1.57969 3.91494 3.86582 3.91494 6.67969H4.51494H5.11494C5.11494 4.52856 6.86381 2.77969 9.01494 2.77969V2.17969ZM4.51494 6.67969H3.91494V8.84719H4.51494H5.11494V6.67969H4.51494ZM4.51494 8.84719H3.91494C3.91494 9.00365 3.87933 9.23562 3.81024 9.48451C3.7412 9.73322 3.65209 9.95073 3.57208 10.0849L4.08744 10.3922L4.60281 10.6994C4.75529 10.4436 4.87993 10.1174 4.96652 9.80549C5.05305 9.49376 5.11494 9.14823 5.11494 8.84719H4.51494ZM4.08744 10.3922L3.57342 10.0827L2.71092 11.5152L3.22494 11.8247L3.73896 12.1342L4.60146 10.7017L4.08744 10.3922ZM3.22494 11.8247L2.71083 11.5154C2.35975 12.0988 2.28554 12.7554 2.50197 13.3399C2.71813 13.9237 3.20116 14.3734 3.84259 14.5905L4.03494 14.0222L4.2273 13.4539C3.89373 13.341 3.70551 13.1344 3.6273 12.9232C3.54935 12.7127 3.55763 12.4355 3.73905 12.134L3.22494 11.8247ZM4.03494 14.0222L3.84481 14.5913C7.20071 15.7125 10.8217 15.7125 14.1776 14.5913L13.9874 14.0222L13.7973 13.4531C10.6882 14.4919 7.33417 14.4919 4.22508 13.4531L4.03494 14.0222ZM13.9874 14.0222L14.1758 14.5919C15.4505 14.1705 16.0035 12.6687 15.3119 11.516L14.7974 11.8247L14.2829 12.1334C14.5813 12.6307 14.3394 13.2739 13.7991 13.4525L13.9874 14.0222ZM14.7974 11.8247L15.3115 11.5152L14.449 10.0827L13.9349 10.3922L13.4209 10.7017L14.2834 12.1342L14.7974 11.8247ZM13.9349 10.3922L14.4547 10.0924C14.3758 9.95573 14.2876 9.7358 14.2192 9.48631C14.1506 9.23617 14.1149 9.00383 14.1149 8.84719H13.5149H12.9149C12.9149 9.14805 12.9768 9.49321 13.0619 9.80369C13.1473 10.1148 13.2691 10.4386 13.4152 10.692L13.9349 10.3922ZM13.5149 8.84719H14.1149V6.67969H13.5149H12.9149V8.84719H13.5149ZM13.5149 6.67969H14.1149C14.1149 3.87332 11.8213 1.57969 9.01494 1.57969V2.17969V2.77969C11.1586 2.77969 12.9149 4.53606 12.9149 6.67969H13.5149ZM10.402 2.39812L10.5692 1.82192C10.3107 1.74685 10.0386 1.68697 9.75415 1.65248L9.68195 2.24812L9.60975 2.84377C9.82026 2.86928 10.0282 2.9144 10.2347 2.97433L10.402 2.39812ZM9.68195 2.24812L9.75637 1.65276C8.9599 1.5532 8.18731 1.61039 7.45947 1.82198L7.62695 2.39812L7.79444 2.97427C8.35659 2.81086 8.964 2.76305 9.60753 2.84349L9.68195 2.24812ZM7.62695 2.39812L8.18559 2.61705C8.31553 2.28547 8.63817 2.05313 9.01445 2.05313V1.45312V0.853125C8.13074 0.853125 7.37338 1.40078 7.06832 2.1792L7.62695 2.39812ZM9.01445 1.45312V2.05313C9.39074 2.05313 9.71338 2.28547 9.84332 2.61705L10.402 2.39812L10.9606 2.1792C10.6555 1.40078 9.89817 0.853125 9.01445 0.853125V1.45312ZM11.2642 14.2969H10.6642C10.6642 15.203 9.92029 15.9469 9.01416 15.9469V16.5469V17.1469C10.583 17.1469 11.8642 15.8657 11.8642 14.2969H11.2642ZM9.01416 16.5469V15.9469C8.56515 15.9469 8.14584 15.76 7.84842 15.4626L7.42416 15.8869L6.9999 16.3111C7.51248 16.8237 8.23318 17.1469 9.01416 17.1469V16.5469ZM7.42416 15.8869L7.84842 15.4626C7.551 15.1652 7.36416 14.7459 7.36416 14.2969H6.76416H6.16416C6.16416 15.0779 6.48732 15.7986 6.9999 16.3111L7.42416 15.8869Z" fill="#32363E"/>
</svg>
