<svg width="16" height="16" viewBox="0 0 16 16" fill="none" xmlns="http://www.w3.org/2000/svg">
<path d="M14.2818 7.28131C14.4012 7.22866 14.5024 7.14215 14.5731 7.03251C14.6438 6.92287 14.6807 6.7949 14.6794 6.66447C14.678 6.53403 14.6384 6.40686 14.5655 6.2987C14.4926 6.19054 14.3896 6.10614 14.2692 6.05597L8.55515 3.45331C8.38144 3.37407 8.19274 3.33307 8.00182 3.33307C7.81089 3.33307 7.62219 3.37407 7.44849 3.45331L1.73515 6.05331C1.61646 6.10529 1.5155 6.19073 1.4446 6.29918C1.3737 6.40764 1.33594 6.5344 1.33594 6.66397C1.33594 6.79355 1.3737 6.92031 1.4446 7.02876C1.5155 7.13722 1.61646 7.22266 1.73515 7.27464L7.44849 9.87997C7.62219 9.95921 7.81089 10.0002 8.00182 10.0002C8.19274 10.0002 8.38144 9.95921 8.55515 9.87997L14.2818 7.28131Z" stroke="#4A5565" stroke-width="1.33333" stroke-linecap="round" stroke-linejoin="round"/>
<path d="M14.668 6.66669V10.6667" stroke="#4A5565" stroke-width="1.33333" stroke-linecap="round" stroke-linejoin="round"/>
<path d="M4 8.33331V10.6666C4 11.1971 4.42143 11.7058 5.17157 12.0809C5.92172 12.4559 6.93913 12.6666 8 12.6666C9.06087 12.6666 10.0783 12.4559 10.8284 12.0809C11.5786 11.7058 12 11.1971 12 10.6666V8.33331" stroke="#4A5565" stroke-width="1.33333" stroke-linecap="round" stroke-linejoin="round"/>
</svg>
