<svg width="16" height="16" viewBox="0 0 16 16" fill="none" xmlns="http://www.w3.org/2000/svg">
<path d="M7.1 12.74V3.26C7.1 2.36 6.72 2 5.76 2H3.34C2.38 2 2 2.36 2 3.26V12.74C2 13.64 2.38 14 3.34 14H5.76C6.72 14 7.1 13.64 7.1 12.74Z" stroke="#494F5A" stroke-linecap="round" stroke-linejoin="round"/>
<path d="M13.9994 12.74V3.26C13.9994 2.36 13.6194 2 12.6594 2H10.2394C9.28608 2 8.89941 2.36 8.89941 3.26V12.74C8.89941 13.64 9.27941 14 10.2394 14H12.6594C13.6194 14 13.9994 13.64 13.9994 12.74Z" stroke="#494F5A" stroke-linecap="round" stroke-linejoin="round"/>
</svg>
