<svg width="16" height="16" viewBox="0 0 16 16" fill="none" xmlns="http://www.w3.org/2000/svg">
<path d="M9.68661 6.31462L6.31328 9.68796C5.87995 9.25462 5.61328 8.66129 5.61328 8.00129C5.61328 6.68129 6.67995 5.61462 7.99995 5.61462C8.65995 5.61462 9.25328 5.88129 9.68661 6.31462Z" stroke="#494F5A" stroke-width="1.5" stroke-linecap="round" stroke-linejoin="round"/>
<path d="M11.8799 3.84438C10.7132 2.96437 9.3799 2.48438 7.9999 2.48438C5.64656 2.48438 3.45323 3.87104 1.92656 6.27104C1.32656 7.21104 1.32656 8.79104 1.92656 9.73104C2.45323 10.5577 3.06656 11.271 3.73323 11.8444" stroke="#494F5A" stroke-width="1.5" stroke-linecap="round" stroke-linejoin="round"/>
<path d="M5.61328 13.0198C6.37328 13.3398 7.17995 13.5132 7.99995 13.5132C10.3533 13.5132 12.5466 12.1265 14.0733 9.7265C14.6733 8.7865 14.6733 7.2065 14.0733 6.2665C13.8533 5.91983 13.6133 5.59317 13.3666 5.2865" stroke="#494F5A" stroke-width="1.5" stroke-linecap="round" stroke-linejoin="round"/>
<path d="M10.3397 8.46875C10.1664 9.40875 9.39972 10.1754 8.45972 10.3488" stroke="#494F5A" stroke-width="1.5" stroke-linecap="round" stroke-linejoin="round"/>
<path d="M6.31325 9.6875L1.33325 14.6675" stroke="#494F5A" stroke-width="1.5" stroke-linecap="round" stroke-linejoin="round"/>
<path d="M14.6663 1.33337L9.68628 6.31337" stroke="#494F5A" stroke-width="1.5" stroke-linecap="round" stroke-linejoin="round"/>
</svg>
