<svg width="16" height="16" viewBox="0 0 16 16" fill="none" xmlns="http://www.w3.org/2000/svg">
<path d="M7.33301 1.33337V2.66671" stroke="#1D1E21" stroke-width="1.33333" stroke-linecap="round" stroke-linejoin="round"/>
<path d="M3.33301 1.33337V2.66671" stroke="#1D1E21" stroke-width="1.33333" stroke-linecap="round" stroke-linejoin="round"/>
<path d="M3.33301 2H2.66634C2.31272 2 1.97358 2.14048 1.72353 2.39052C1.47348 2.64057 1.33301 2.97971 1.33301 3.33333V6C1.33301 7.06087 1.75444 8.07828 2.50458 8.82843C3.25473 9.57857 4.27214 10 5.33301 10C6.39387 10 7.41129 9.57857 8.16144 8.82843C8.91158 8.07828 9.33301 7.06087 9.33301 6V3.33333C9.33301 2.97971 9.19253 2.64057 8.94248 2.39052C8.69243 2.14048 8.3533 2 7.99967 2H7.33301" stroke="#1D1E21" stroke-width="1.33333" stroke-linecap="round" stroke-linejoin="round"/>
<path d="M5.33301 10C5.33301 11.0609 5.75444 12.0783 6.50458 12.8284C7.25473 13.5786 8.27214 14 9.33301 14C10.3939 14 11.4113 13.5786 12.1614 12.8284C12.9116 12.0783 13.333 11.0609 13.333 10V8" stroke="#1D1E21" stroke-width="1.33333" stroke-linecap="round" stroke-linejoin="round"/>
<path d="M13.3333 8.00004C14.0697 8.00004 14.6667 7.40309 14.6667 6.66671C14.6667 5.93033 14.0697 5.33337 13.3333 5.33337C12.597 5.33337 12 5.93033 12 6.66671C12 7.40309 12.597 8.00004 13.3333 8.00004Z" stroke="#1D1E21" stroke-width="1.33333" stroke-linecap="round" stroke-linejoin="round"/>
</svg>
